# xmcd CD database file
#
# Track frame offsets:
#	150
#	11500
#	24407
#	36692
#	51427
#	65305
#	79497
#	92379
#	102150
#	118415
#	130537
#	142620
#	155387
#	172025
#	183792
#	199852
#	212040
#	224455
#	236495
#	250632
#	266765
#	279352
#	297047
#
# Disc length: 4183 seconds
#
# Revision: 3
# Processed by: cddbd v1.4PL0 Copyright (c) Steve Scherf et al.
# Submitted via: CDex 1.50
#
DISCID=47105517
DTITLE=Merle Haggard - Collector's Edition
DYEAR=1996
DGENRE=Country
TTITLE0=My Friend's Are Gonna Be Strangers
TTITLE1=Swinging Doors
TTITLE2=The Bottle Let Me Down
TTITLE3=I'm A Lonesome Fugitive
TTITLE4=I Threw Away The Rose
TTITLE5=Branded Man
TTITLE6=Sing Me Back Home
TTITLE7=Mama Tried
TTITLE8=Hungry Eyes
TTITLE9=Workin' Man Blues
TTITLE10=Okie From Muskogee
TTITLE11=The Fightin' Side Of Me
TTITLE12=Daddy Frank
TTITLE13=Carolyn
TTITLE14=It's Not Love
TTITLE15=Everybody's Had The Blues
TTITLE16=If We Make It Through December
TTITLE17=Things Aren't Funny Anymore
TTITLE18=Always Wanting You
TTITLE19=It's All In The Movies
TTITLE20=I'm Always On A Mountain When I Fall
TTITLE21=I Think I'll Just Stay Here And Drink
TTITLE22=Today I Stared Lovin' You Again
EXTD=YEAR: 1996
EXTT0=
EXTT1=
EXTT2=
EXTT3=
EXTT4=
EXTT5=
EXTT6=
EXTT7=
EXTT8=
EXTT9=
EXTT10=
EXTT11=
EXTT12=
EXTT13=
EXTT14=
EXTT15=
EXTT16=
EXTT17=
EXTT18=
EXTT19=
EXTT20=
EXTT21=
EXTT22=
PLAYORDER=
